<?xml version="1.0" encoding="UTF-8"?>
<svg version="1.1" xmlns="http://www.w3.org/2000/svg" width="800" height="800" viewBox="0 0 800 800">
  <g transform="translate(0,800) scale(0.1,-0.1)" fill="#ea5403" stroke="none">
    <path d="M3315 7534 c-16 -2 -86 -11 -155 -20 -630 -80 -1239 -340 -1755 -751 -140 -111 -428 -398 -532 -530 -263 -331 -434 -634 -573 -1008 -151 -409 -214 -767 -214 -1225 0 -253 10 -389 45 -593 118 -702 450 -1358 943 -1865 572 -588 1270 -942 2091 -1059 106 -15 193 -18 465 -18 297 0 352 3 487 23 504 75 963 241 1373 496 128 80 334 226 327 232 -7 7 -358 134 -369 134 -6 0 -54 -28 -107 -62 -207 -134 -510 -274 -761 -351 -332 -102 -603 -142 -960 -142 -292 1 -513 28 -781 95 -1192 301 -2116 1271 -2358 2475 -47 235 -56 338 -56 635 0 297 9 400 56 635 210 1048 948 1938 1939 2338 399 161 770 232 1210 231 524 -1 967 -104 1430 -335 630 -315 1138 -826 1445 -1454 88 -180 129 -285 188 -475 l45 -143 103 -38 c57 -20 141 -51 187 -68 l83 -30 -6 32 c-21 106 -82 331 -120 444 -400 1182 -1398 2069 -2625 2333 -239 51 -360 62 -695 65 -176 2 -333 1 -350 -1z"/>
    <path d="M3507 5465 c-29 -7 -62 -25 -82 -45 -70 -68 -66 53 -63 -1670 3 -1534 3 -1555 23 -1589 35 -59 88 -94 149 -99 30 -2 71 -1 91 2 44 9 100 56 126 107 19 38 19 69 17 1607 l-3 1568 -28 42 c-46 71 -137 101 -230 77z"/>
    <path d="M6604 3660 c-82 -12 -162 -80 -193 -163 -21 -55 -13 -140 17 -198 116 -222 447 -158 469 91 15 164 -127 296 -293 270z"/>
    <path d="M6045 2426 c-61 -29 -97 -61 -123 -112 -86 -169 32 -364 221 -364 144 0 250 106 249 250 -1 181 -187 302 -347 226z"/>
  </g>
</svg>
